<svg xmlns="http://www.w3.org/2000/svg" xmlns:xlink="http://www.w3.org/1999/xlink" width="156.714" height="173.278" viewBox="0 0 123 136">
  <metadata><?xpacket begin="﻿" id="W5M0MpCehiHzreSzNTczkc9d"?>
<x:xmpmeta xmlns:x="adobe:ns:meta/" x:xmptk="Adobe XMP Core 5.6-c138 79.159824, 2016/09/14-01:09:01        ">
   <rdf:RDF xmlns:rdf="http://www.w3.org/1999/02/22-rdf-syntax-ns#">
      <rdf:Description rdf:about=""/>
   </rdf:RDF>
</x:xmpmeta>
                                                                                                    
                                                                                                    
                                                                                                    
                                                                                                    
                                                                                                    
                                                                                                    
                                                                                                    
                                                                                                    
                                                                                                    
                                                                                                    
                                                                                                    
                                                                                                    
                                                                                                    
                                                                                                    
                                                                                                    
                                                                                                    
                                                                                                    
                                                                                                    
                                                                                                    
                                                                                                    
                           
<?xpacket end="w"?></metadata>
<defs>
    <style>
      .cls-1 {
        fill: #b0280d;
        fill-rule: evenodd;
        filter: url(#filter);
      }
    </style>
    <filter id="filter" x="0.031" y="0" width="123" height="136" filterUnits="userSpaceOnUse">
      <feFlood result="flood" flood-color="#010101"/>
      <feComposite result="composite" operator="in" in2="SourceGraphic"/>
      <feBlend result="blend" in2="SourceGraphic"/>
    </filter>
  </defs>
  <path class="cls-1" d="M122.93,109.173l-1.729,6.6h-6.553l1.457-5.561H108.1l-1.4,5.335,10.952,8.333a2.1,2.1,0,0,1,.8,2.394l-1.842,7.032q-0.706,2.7-4.684,2.7H98.734q-3.949,0-3.243-2.7l1.842-7.032h6.554l-1.575,6.014h8.01l1.516-5.788-10.943-8.37a2.1,2.1,0,0,1-.811-2.357l1.719-6.56q0.711-2.715,4.66-2.715h13.191Q123.631,106.5,122.93,109.173ZM61.58,24.121L24.328,83.375H53.783l6.992,11.588L1.8,94.927,61.3,0l59.312,95-14.958-.009ZM23.143,106.458L23.834,136h-6.5l0.15-5.6H9.281L6.5,136H0.028l0.02-.075,16.205-29.467h6.89Zm-5.587,20.153L17.849,113.3l-6.707,13.309h6.414ZM50.265,106.5L56,124.689a7.42,7.42,0,0,1,.138-2.131L60.348,106.5h6.386L59,136H53.263l-5.638-18.57a7.417,7.417,0,0,1-.138,2.131L43.181,136H36.8l7.729-29.5h5.741ZM54.3,59.778l7.1-11.886L90.692,94.982l-14.958-.009ZM87.956,106.5L80.228,136H73.674L81.4,106.5h6.554Z" transform="translate(-0.031)"/>
</svg>
