<svg xmlns="http://www.w3.org/2000/svg" width="13" height="19" viewBox="0 0 13 19">
  <metadata><?xpacket begin="﻿" id="W5M0MpCehiHzreSzNTczkc9d"?>
<x:xmpmeta xmlns:x="adobe:ns:meta/" x:xmptk="Adobe XMP Core 5.6-c138 79.159824, 2016/09/14-01:09:01        ">
   <rdf:RDF xmlns:rdf="http://www.w3.org/1999/02/22-rdf-syntax-ns#">
      <rdf:Description rdf:about=""/>
   </rdf:RDF>
</x:xmpmeta>
                                                                                                    
                                                                                                    
                                                                                                    
                                                                                                    
                                                                                                    
                                                                                                    
                                                                                                    
                                                                                                    
                                                                                                    
                                                                                                    
                                                                                                    
                                                                                                    
                                                                                                    
                                                                                                    
                                                                                                    
                                                                                                    
                                                                                                    
                                                                                                    
                                                                                                    
                                                                                                    
                           
<?xpacket end="w"?></metadata>
<defs>
    <style>
      .cls-1 {
        fill: #b0280d;
        fill-rule: evenodd;
      }
    </style>
  </defs>
  <path id="Forma_1" data-name="Forma 1" class="cls-1" d="M815.693,3488.73A6.48,6.48,0,0,0,803,3489.89v0.81c0,0.04.012,0.34,0.028,0.49,0.235,1.9,1.717,3.91,2.824,5.8,1.191,2.02,2.427,4.02,3.652,6.01,0.755-1.3,1.507-2.62,2.245-3.88,0.2-.38.434-0.75,0.635-1.1,0.135-.24.391-0.48,0.508-0.7,1.191-2.19,3.108-4.4,3.108-6.58v-0.9A6.9,6.9,0,0,0,815.693,3488.73Zm-6.229,4.07a2.3,2.3,0,0,1-2.209-1.59,2.223,2.223,0,0,1-.062-0.59v-0.52a2.187,2.187,0,0,1,2.344-2.16,2.383,2.383,0,0,1,2.38,2.43A2.445,2.445,0,0,1,809.464,3492.8Z" transform="translate(-803 -3484)"/>
</svg>
